<svg xmlns="http://www.w3.org/2000/svg" width="439.578" height="439.281" viewBox="0 0 439.578 439.281">
  <g id="Group_91" data-name="Group 91" transform="translate(124.258 -26.529)">
    <rect id="Rectangle_796" data-name="Rectangle 796" width="439.573" height="78.006" transform="translate(-124.257 52.595)" fill="#00434E"/>
    <rect id="Rectangle_797" data-name="Rectangle 797" width="26.449" height="38.907" transform="translate(-71.455 26.529)" fill="#00434E"/>
    <rect id="Rectangle_798" data-name="Rectangle 798" width="26.449" height="38.907" transform="translate(5.88 26.529)" fill="#00434E"/>
    <rect id="Rectangle_799" data-name="Rectangle 799" width="26.449" height="38.907" transform="translate(82.928 26.529)" fill="#00434E"/>
    <rect id="Rectangle_800" data-name="Rectangle 800" width="26.449" height="38.907" transform="translate(160.262 26.529)" fill="#00434E"/>
    <rect id="Rectangle_801" data-name="Rectangle 801" width="26.449" height="38.907" transform="translate(236.447 26.529)" fill="#00434E"/>
    <path id="Path_310" data-name="Path 310" d="M-48.122,46.277A65.529,65.529,0,0,0-112.244,99.4H16.013A65.554,65.554,0,0,0-48.122,46.277Z" transform="translate(144.555 237.621)" fill="#00434E"/>
    <path id="Path_311" data-name="Path 311" d="M-124.257,36.515v309.14H315.317V36.515ZM211.236,241.588H-18.756V216.864H9.878a87.745,87.745,0,0,1,73.049-74.105V113.943h26.444v28.724a87.732,87.732,0,0,1,73.61,74.2h28.255Z" transform="translate(0.004 120.156)" fill="#00434E"/>
  </g>
</svg>
