<svg id="_216411_star_icon" data-name="216411_star_icon" xmlns="http://www.w3.org/2000/svg" width="10.694" height="10.201" viewBox="0 0 10.694 10.201">
  <g id="Group_538" data-name="Group 538" transform="translate(0 0)">
    <path id="Path_279" data-name="Path 279" d="M7.307,7.315l-3.373.374a.322.322,0,0,0-.27.22.317.317,0,0,0,.09.334c1,.915,2.509,2.285,2.509,2.285s-.414,1.993-.688,3.323a.323.323,0,0,0,.126.324.318.318,0,0,0,.344.018c1.181-.671,2.949-1.68,2.949-1.68l2.948,1.681a.319.319,0,0,0,.471-.342c-.274-1.331-.686-3.324-.686-3.324l2.509-2.283a.323.323,0,0,0,.09-.336.319.319,0,0,0-.269-.218l-3.374-.375-1.4-3.093a.324.324,0,0,0-.292-.188.319.319,0,0,0-.29.188C8.145,5.459,7.307,7.315,7.307,7.315Z" transform="translate(-3.649 -4.034)" fill="#fff"/>
  </g>
</svg>
