<svg width="22" height="22" viewBox="0 0 22 22" fill="none" xmlns="http://www.w3.org/2000/svg">
<g clip-path="url(#clip0_212_25)">
<path d="M8.8667 9.21904C8.86747 9.34222 8.90046 9.46306 8.96238 9.56954C9.02431 9.67603 9.11302 9.76446 9.2197 9.82604V12.041H9.9257V9.82604C10.0324 9.76446 10.1211 9.67603 10.183 9.56954C10.2449 9.46306 10.2779 9.34222 10.2787 9.21904V7.80804H8.8667V9.21904Z" fill="#1D4902" stroke="#1D4902" stroke-width="0.8"/>
<path d="M11.689 7.80804V9.21904C11.6897 9.34222 11.7227 9.46306 11.7846 9.56954C11.8466 9.67603 11.9353 9.76446 12.042 9.82604V12.041H12.748V9.82604C12.8546 9.76446 12.9434 9.67603 13.0053 9.56954C13.0672 9.46306 13.1002 9.34222 13.101 9.21904V7.80804H11.689Z" fill="#1D4902" stroke="#1D4902" stroke-width="0.8"/>
<path d="M17.333 8.867H18.039C18.4457 8.86685 18.8399 9.00721 19.155 9.26434C19.4701 9.52146 19.6866 9.87955 19.768 10.278H15.605C15.6864 9.87972 15.9028 9.52176 16.2176 9.26465C16.5325 9.00755 16.9265 8.86708 17.333 8.867ZM14.864 10.984H20.508V11.69H14.864V10.984ZM3.92701 8.867H4.63301C5.039 8.86777 5.4323 9.00855 5.74655 9.2656C6.0608 9.52265 6.27676 9.88023 6.35801 10.278H2.19901C2.28035 9.87972 2.49676 9.52176 2.81163 9.26465C3.1265 9.00755 3.5205 8.86708 3.92701 8.867ZM1.45801 10.984H7.10301V11.69H1.45801V10.984Z" fill="#1D4902" stroke="#1D4902" stroke-width="0.8"/>
<path d="M21.5669 0.400024H0.399902V1.10602H2.3399L3.9279 4.28102L5.5149 1.10602H5.8679L7.4559 4.28102L9.0439 1.10602H9.3999L10.9879 4.28102L12.5759 1.10602H12.9289L14.5169 4.28102L16.0999 1.10602H16.4529L18.0409 4.28102L19.6289 1.10602H21.5689L21.5669 0.400024Z" fill="#1D4902" stroke="#1D4902" stroke-width="0.8"/>
<path d="M0.75293 12.395H2.05293L4.01093 13.806H0.75293V12.395ZM2.86993 21.567H1.45893V14.512H2.86993V21.567ZM3.57593 15.922V14.512H4.98593L6.94693 15.923L3.57593 15.922ZM10.9839 17.958L8.16193 15.922L3.25293 12.395H18.7099L13.8099 15.923L10.9839 17.958ZM15.0159 15.922L16.9809 14.511H18.3919V15.922H15.0159ZM20.5089 21.567H19.0979V14.512H20.5089V21.567ZM21.2149 13.806H17.9579L19.9159 12.395H21.2159L21.2149 13.806Z" fill="#1D4902" stroke="#1D4902" stroke-width="0.8"/>
</g>
<defs>
<clipPath id="clip0_212_25">
<rect width="21.967" height="21.967" fill="white"/>
</clipPath>
</defs>
</svg>
