<svg xmlns="http://www.w3.org/2000/svg" width="400" height="400" fill="none"><rect width="400" height="400" fill="#222F28" rx="200"/><path fill="#9CC1BD" fill-rule="evenodd" d="M341.014 233.11H57.984v47.758h283.03V233.11zM114.03 266.58h-2.785c.196-.256.37-.533.522-.831.458-.878.687-1.843.687-2.894V250.82c0-1.05-.229-2.006-.687-2.865a5.2 5.2 0 0 0-1.863-2.092c-.783-.516-1.681-.774-2.693-.774h-.631c-1.012 0-1.92.258-2.722.774-.783.516-1.404 1.213-1.863 2.092-.439.859-.659 1.815-.659 2.865v12.035c0 1.051.22 2.016.659 2.894a5.559 5.559 0 0 0 1.863 2.064c.802.515 1.71.773 2.722.773h7.45v-2.006zm-6.848 0h-.602c-.898 0-1.624-.353-2.178-1.06-.554-.707-.831-1.595-.831-2.665V250.82c0-1.069.277-1.958.831-2.665.554-.706 1.28-1.06 2.178-1.06h.631c.898 0 1.623.354 2.177 1.06.554.707.831 1.596.831 2.665v12.035c0 1.07-.277 1.958-.831 2.665-.554.707-1.279 1.06-2.177 1.06h-.029zm-36.627-21.204H81.96v2.006h-9.17v9.313h8.596v2.005H72.79v9.6h-2.235v-22.924zm17.41 22.924v-8.625H94.9v8.625h2.235v-14.328l-3.38-8.596h-4.643l-3.381 8.596V268.3h2.235zm6.935-10.631h-6.934v-3.496l2.607-6.791h1.72l2.607 6.791v3.496zm39.74 1.318h2.977l4.1 9.313h2.379l-4.21-9.56a4.582 4.582 0 0 0 1.086-.527 5.245 5.245 0 0 0 1.863-2.063 6.167 6.167 0 0 0 .688-2.894v-2.149c0-1.051-.23-2.006-.688-2.866a5.197 5.197 0 0 0-1.863-2.091c-.783-.516-1.681-.774-2.693-.774h-5.874V268.3h2.235v-9.313zm0-11.605v9.599h3.639c.898 0 1.624-.353 2.178-1.06.554-.707.831-1.595.831-2.665v-2.149c0-1.07-.277-1.958-.831-2.665-.554-.707-1.28-1.06-2.178-1.06h-3.639zm15.462-2.006h-2.235V268.3h10.831v-2.006h-8.596v-8.74h7.45v-2.006h-7.45v-8.166h8.596v-2.006h-8.596zm24.632 5.444v1.548h-2.235v-1.548c0-1.069-.277-1.958-.831-2.665-.554-.706-1.28-1.06-2.178-1.06h-1.06c-.898 0-1.624.354-2.178 1.06-.554.707-.831 1.596-.831 2.665v12.035c0 1.07.277 1.958.831 2.665.554.707 1.28 1.06 2.178 1.06h1.06c.898 0 1.624-.353 2.178-1.06.554-.707.831-1.595.831-2.665v-1.547h2.235v1.547c0 1.051-.229 2.016-.688 2.894a5.246 5.246 0 0 1-1.862 2.064c-.784.515-1.681.773-2.694.773h-1.06c-1.013 0-1.92-.258-2.722-.773a5.55 5.55 0 0 1-1.863-2.064c-.439-.878-.659-1.843-.659-2.894V250.82c0-1.05.22-2.006.659-2.865.459-.879 1.079-1.576 1.863-2.092.802-.516 1.709-.774 2.722-.774h1.06c1.013 0 1.91.258 2.694.774a5.197 5.197 0 0 1 1.862 2.092c.459.859.688 1.815.688 2.865zm6.981 14.7c-.554-.707-.831-1.595-.831-2.665V250.82c0-1.069.277-1.958.831-2.665.554-.706 1.279-1.06 2.177-1.06h.631c.898 0 1.623.354 2.177 1.06.554.707.831 1.596.831 2.665v12.035c0 1.07-.277 1.958-.831 2.665-.554.707-1.279 1.06-2.177 1.06h-.631c-.898 0-1.623-.353-2.177-1.06zm-.545 2.293c.802.515 1.71.773 2.722.773h.631c1.012 0 1.91-.258 2.693-.773a5.248 5.248 0 0 0 1.863-2.064c.458-.878.688-1.843.688-2.894V250.82c0-1.05-.23-2.006-.688-2.865a5.2 5.2 0 0 0-1.863-2.092c-.783-.516-1.681-.774-2.693-.774h-.631c-1.012 0-1.92.258-2.722.774a5.49 5.49 0 0 0-1.862 2.092c-.44.859-.66 1.815-.66 2.865v12.035c0 1.051.22 2.016.66 2.894a5.548 5.548 0 0 0 1.862 2.064zm15.319-8.826h2.977l4.101 9.313h2.378l-4.209-9.56a4.6 4.6 0 0 0 1.086-.527 5.253 5.253 0 0 0 1.863-2.063c.458-.879.687-1.843.687-2.894v-2.149c0-1.051-.229-2.006-.687-2.866a5.204 5.204 0 0 0-1.863-2.091c-.783-.516-1.681-.774-2.694-.774h-5.874V268.3h2.235v-9.313zm0-11.605v9.599h3.639c.898 0 1.624-.353 2.178-1.06.554-.707.831-1.595.831-2.665v-2.149c0-1.07-.277-1.958-.831-2.665-.554-.707-1.28-1.06-2.178-1.06h-3.639zm24.346 15.187v-11.462c0-1.051-.23-2.006-.688-2.866a5.19 5.19 0 0 0-1.863-2.091c-.783-.516-1.681-.774-2.693-.774h-5.874V268.3h5.874c1.012 0 1.91-.258 2.693-.774a5.238 5.238 0 0 0 1.863-2.063 6.17 6.17 0 0 0 .688-2.894zm-2.235-11.462v11.462c0 1.07-.277 1.958-.831 2.665-.554.707-1.28 1.06-2.178 1.06h-3.639v-18.912h3.639c.898 0 1.624.353 2.178 1.06.554.707.831 1.595.831 2.665zm30.781 11.748c0-.936-.181-1.719-.544-2.349-.363-.65-.812-1.166-1.347-1.548-.535-.401-1.261-.84-2.178-1.318-1.051-.554-1.891-1.07-2.521-1.547-.631-.497-1.175-1.165-1.634-2.006-.439-.86-.659-1.949-.659-3.267 0-1.05.22-2.006.659-2.865.459-.879 1.08-1.576 1.863-2.092.802-.516 1.709-.774 2.722-.774 1.012 0 1.91.258 2.694.774a5.197 5.197 0 0 1 1.862 2.092c.459.859.688 1.815.688 2.865v1.147h-2.235v-1.147c0-1.069-.277-1.958-.831-2.665-.554-.706-1.28-1.06-2.178-1.06-.898 0-1.624.354-2.178 1.06-.554.707-.831 1.596-.831 2.665 0 .936.182 1.729.545 2.379.363.63.812 1.146 1.346 1.547.535.382 1.261.812 2.178 1.289 1.051.554 1.891 1.08 2.522 1.577.63.477 1.165 1.146 1.604 2.005.459.841.688 1.92.688 3.238 0 1.051-.229 2.016-.688 2.894a5.246 5.246 0 0 1-1.862 2.064c-.783.515-1.681.773-2.694.773h-.63c-1.013 0-1.92-.258-2.722-.773a5.559 5.559 0 0 1-1.863-2.064c-.439-.878-.659-1.843-.659-2.894v-1.146h2.235v1.146c0 1.07.277 1.958.831 2.665.554.707 1.28 1.06 2.178 1.06h.63c.898 0 1.624-.353 2.178-1.06.554-.707.831-1.595.831-2.665zm13.256 5.445v-20.918h5.76v-2.006h-13.755v2.006h5.76V268.3h2.235zm8.786-22.924h2.235v17.479c0 1.07.277 1.958.831 2.665.554.707 1.28 1.06 2.178 1.06h.63c.898 0 1.624-.353 2.178-1.06.554-.707.831-1.595.831-2.665v-17.479h2.235v17.479c0 1.051-.229 2.016-.688 2.894a5.246 5.246 0 0 1-1.862 2.064c-.783.515-1.681.773-2.694.773h-.63c-1.013 0-1.92-.258-2.722-.773a5.542 5.542 0 0 1-1.863-2.064c-.439-.878-.659-1.843-.659-2.894v-17.479zm26.724 17.193v-11.462c0-1.051-.23-2.006-.688-2.866a5.19 5.19 0 0 0-1.863-2.091c-.783-.516-1.681-.774-2.693-.774h-5.874V268.3h5.874c1.012 0 1.91-.258 2.693-.774a5.238 5.238 0 0 0 1.863-2.063 6.17 6.17 0 0 0 .688-2.894zm-2.235-11.462v11.462c0 1.07-.277 1.958-.831 2.665-.554.707-1.28 1.06-2.178 1.06h-3.639v-18.912h3.639c.898 0 1.624.353 2.178 1.06.554.707.831 1.595.831 2.665zm13.112-3.725v18.912h4.442v2.006h-11.118v-2.006h4.441v-18.912h-4.441v-2.006h11.118v2.006h-4.442zm11.852 18.138c-.554-.707-.831-1.595-.831-2.665V250.82c0-1.069.277-1.958.831-2.665.554-.706 1.28-1.06 2.178-1.06h.63c.898 0 1.624.354 2.178 1.06.554.707.831 1.596.831 2.665v12.035c0 1.07-.277 1.958-.831 2.665-.554.707-1.28 1.06-2.178 1.06h-.63c-.898 0-1.624-.353-2.178-1.06zm-.544 2.293c.802.515 1.71.773 2.722.773h.63c1.013 0 1.911-.258 2.694-.773a5.256 5.256 0 0 0 1.863-2.064c.458-.878.687-1.843.687-2.894V250.82c0-1.05-.229-2.006-.687-2.865a5.207 5.207 0 0 0-1.863-2.092c-.783-.516-1.681-.774-2.694-.774h-.63c-1.012 0-1.92.258-2.722.774-.783.516-1.404 1.213-1.863 2.092-.439.859-.659 1.815-.659 2.865v12.035c0 1.051.22 2.016.659 2.894a5.559 5.559 0 0 0 1.863 2.064z" clip-rule="evenodd"/><path fill="#9CC1BD" fill-rule="evenodd" d="M171.096 120H57.985v113.111h2.01v-111.1h111.101V120z" clip-rule="evenodd"/><path fill="#9CC1BD" fill-rule="evenodd" d="M114.792 201.944c13.882 0 25.136-11.254 25.136-25.136s-11.254-25.136-25.136-25.136-25.136 11.254-25.136 25.136 11.254 25.136 25.136 25.136zm0 2.01c14.993 0 27.147-12.153 27.147-27.146s-12.154-27.147-27.147-27.147c-14.993 0-27.147 12.154-27.147 27.147 0 14.993 12.154 27.146 27.147 27.146z" clip-rule="evenodd"/><path fill="#9CC1BD" fill-rule="evenodd" d="M114.794 193.899c9.439 0 17.092-7.653 17.092-17.093 0-9.44-7.653-17.092-17.092-17.092-9.44 0-17.093 7.652-17.093 17.092 0 9.44 7.653 17.093 17.093 17.093zm0 2.011c10.55 0 19.103-8.553 19.103-19.104 0-10.55-8.553-19.103-19.103-19.103-10.551 0-19.104 8.553-19.104 19.103 0 10.551 8.553 19.104 19.104 19.104z" clip-rule="evenodd"/><path fill="#9CC1BD" fill-rule="evenodd" d="M114.79 185.353a8.547 8.547 0 1 0 0-17.093 8.547 8.547 0 0 0 0 17.093zm0 2.011c5.831 0 10.557-4.726 10.557-10.557 0-5.83-4.726-10.557-10.557-10.557-5.83 0-10.557 4.727-10.557 10.557 0 5.831 4.727 10.557 10.557 10.557z" clip-rule="evenodd"/><path fill="#9CC1BD" fill-rule="evenodd" d="M114.791 210.487c18.602 0 33.682-15.08 33.682-33.682 0-18.602-15.08-33.682-33.682-33.682-18.602 0-33.682 15.08-33.682 33.682 0 18.602 15.08 33.682 33.682 33.682zm0 2.011c19.713 0 35.693-15.98 35.693-35.693 0-19.712-15.98-35.693-35.693-35.693-19.713 0-35.693 15.981-35.693 35.693 0 19.713 15.98 35.693 35.693 35.693z" clip-rule="evenodd"/><path fill="#9CC1BD" fill-rule="evenodd" d="M114.794 219.036c23.322 0 42.228-18.907 42.228-42.229s-18.906-42.228-42.228-42.228c-23.322 0-42.228 18.906-42.228 42.228 0 23.322 18.906 42.229 42.228 42.229zm0 2.01c24.433 0 44.239-19.806 44.239-44.239 0-24.432-19.806-44.239-44.239-44.239-24.432 0-44.239 19.807-44.239 44.239 0 24.433 19.807 44.239 44.239 44.239zM341.015 120H171.097v113.111h169.918V120zM193.24 131.866h31.671c1.183 0 1.774.591 1.774 1.773v14.189c0 1.182-.591 1.774-1.774 1.774h-12.415v31.291h12.415c1.183 0 1.774.591 1.774 1.773v14.189c0 1.182-.591 1.773-1.774 1.773h-12.415v20.143c0 1.183-.591 1.774-1.773 1.774H193.24c-1.182 0-1.773-.591-1.773-1.774v-85.132c0-1.182.591-1.773 1.773-1.773zm35.712 1.773c0-1.182.592-1.773 1.774-1.773h41.046c1.182 0 1.773.591 1.773 1.773v36.992c0 1.774-.253 3.252-.76 4.434-.507 1.098-1.224 1.943-2.153 2.534-.93.591-2.027 1.013-3.294 1.267-1.267.169-2.703.253-4.308.253h-13.048v2.534h13.048c2.112 0 3.843.38 5.194 1.14 1.352.76 2.408 1.731 3.168 2.914a9.516 9.516 0 0 1 1.646 3.927c.338 1.436.507 2.829.507 4.18v24.957c0 1.183-.591 1.774-1.773 1.774h-17.483c-1.182 0-1.773-.591-1.773-1.774v-29.517h-2.534v29.517c0 1.183-.591 1.774-1.774 1.774h-17.482c-1.182 0-1.774-.591-1.774-1.774v-85.132zm21.03 15.963v22.043h2.534v-22.043h-2.534zm45.362 31.924h-17.483c-1.182 0-1.773.633-1.773 1.9v35.345c0 1.183.591 1.774 1.773 1.774h41.046c1.183 0 1.774-.591 1.774-1.774V163.79c0-1.182-.634-1.773-1.901-1.773h-21.663v-12.415h2.534v7.981c0 1.266.591 1.9 1.774 1.9h17.482c1.183 0 1.774-.634 1.774-1.9v-23.944c0-1.182-.591-1.773-1.774-1.773h-41.046c-1.182 0-1.773.591-1.773 1.773v43.706c0 1.183.633 1.774 1.9 1.774h21.663v23.69h-2.534v-19.383c0-1.267-.591-1.9-1.773-1.9z" clip-rule="evenodd"/></svg>