<svg width="158" height="174" viewBox="0 0 158 174" fill="none" xmlns="http://www.w3.org/2000/svg">
<path d="M133.142 40.2324H168.742L131.273 3.43091V38.366C131.273 39.3946 132.111 40.2324 133.142 40.2324Z" fill="black"/>
<path d="M133.142 51.9741C125.638 51.9741 119.532 45.8696 119.532 38.366V0.0234375H21.9055C9.82628 0.0234375 0 9.84972 0 21.9289V178.509C0 190.588 9.82628 200.414 21.9055 200.414H150.305C162.386 200.414 172.211 190.588 172.211 178.509V51.9741H133.142ZM119.722 151.882H44.1045C40.8621 151.882 38.2337 149.254 38.2337 146.011C38.2337 142.769 40.8621 140.14 44.1045 140.14H119.722C122.966 140.14 125.593 142.769 125.593 146.011C125.593 149.254 122.966 151.882 119.722 151.882ZM38.2337 122.528C38.2337 119.285 40.8621 116.657 44.1045 116.657H111.582C114.826 116.657 117.453 119.285 117.453 122.528C117.453 125.77 114.823 128.399 111.582 128.399H44.1045C40.8621 128.399 38.2337 125.77 38.2337 122.528ZM126.861 104.915H44.1045C40.8621 104.915 38.2337 102.287 38.2337 99.0446C38.2337 95.8022 40.8621 93.1738 44.1045 93.1738H126.861C130.103 93.1738 132.732 95.8022 132.732 99.0446C132.732 102.287 130.103 104.915 126.861 104.915Z" fill="black"/>
</svg>
