<svg width="30" height="30" viewBox="0 0 30 30" fill="none" xmlns="http://www.w3.org/2000/svg">
<g clip-path="url(#clip0_168_585)">
<path d="M15 30C23.2843 30 30 23.2843 30 15C30 6.71573 23.2843 0 15 0C6.71573 0 0 6.71573 0 15C0 23.2843 6.71573 30 15 30Z" fill="#70016A"/>
<path d="M21.62 12.2569V17.3639H18.486C18.461 17.2899 18.461 17.1909 18.437 17.1169H20.164C20.2146 17.1207 20.2654 17.1122 20.312 17.0919C20.6123 17.034 20.8838 16.8754 21.0818 16.6424C21.2798 16.4093 21.3924 16.1156 21.401 15.8099V13.1199C21.4039 12.9293 21.3658 12.7402 21.2892 12.5656C21.2125 12.391 21.0993 12.2349 20.957 12.1079C20.7556 11.9273 20.5032 11.8137 20.2345 11.7827C19.9658 11.7517 19.6941 11.8049 19.457 11.9349C19.2528 12.0538 19.0823 12.2226 18.9614 12.4255C18.8405 12.6285 18.7733 12.8588 18.766 13.0949V14.6949H18.051C18.0295 14.5284 17.9961 14.3637 17.951 14.2019C17.923 14.098 17.8623 14.0059 17.7778 13.9392C17.6933 13.8725 17.5896 13.8349 17.482 13.8319H13.281C13.1723 13.8306 13.0664 13.8666 12.981 13.934C12.8957 14.0013 12.836 14.0959 12.812 14.2019C12.787 14.3749 12.738 14.5229 12.712 14.6949H11.901V12.9719C11.8719 12.6678 11.7378 12.3832 11.5218 12.1671C11.3057 11.9511 11.0212 11.817 10.717 11.7879C10.4309 11.7648 10.1449 11.8338 9.90077 11.9847C9.65664 12.1357 9.46716 12.3607 9.35998 12.6269C9.2787 12.8561 9.24468 13.0993 9.25998 13.3419V15.9079C9.29471 16.2336 9.44643 16.5357 9.68697 16.758C9.92751 16.9804 10.2405 17.1079 10.568 17.1169H12.195C12.17 17.1909 12.17 17.2899 12.146 17.3639H8.98798V12.2569C8.98226 12.1299 8.92776 12.01 8.83584 11.9221C8.74392 11.8342 8.62165 11.7852 8.49448 11.7852C8.36731 11.7852 8.24504 11.8342 8.15311 11.9221C8.06119 12.01 8.0067 12.1299 8.00098 12.2569V20.4969C8.00569 20.6262 8.05914 20.7489 8.1506 20.8403C8.24205 20.9318 8.36473 20.9852 8.49398 20.9899C8.62416 20.9881 8.74851 20.9356 8.84058 20.8435C8.93264 20.7515 8.98517 20.6271 8.98698 20.4969V18.3509H11.948C11.874 18.7699 11.775 19.1899 11.701 19.6089C11.652 19.8559 11.601 20.1269 11.553 20.3739C11.5334 20.4462 11.5306 20.522 11.545 20.5955C11.5593 20.669 11.5903 20.7382 11.6356 20.7979C11.6809 20.8575 11.7393 20.9059 11.8063 20.9394C11.8733 20.9728 11.9471 20.9905 12.022 20.9909H14.539C14.6904 20.9822 14.8385 20.9427 14.9742 20.8748C15.1099 20.8069 15.2303 20.712 15.328 20.5959C15.428 20.6699 15.528 20.7689 15.628 20.8429C15.899 21.0649 16.294 20.9909 16.615 20.9909H18.615C18.7067 20.9888 18.7946 20.9532 18.862 20.8909L18.911 20.8419C18.962 20.7761 18.9993 20.7006 19.0204 20.62C19.0415 20.5394 19.0461 20.4554 19.034 20.3729C18.911 19.7069 18.787 19.0159 18.664 18.3499H21.6V20.4959C21.6047 20.6252 21.6581 20.7479 21.7496 20.8393C21.8411 20.9308 21.9637 20.9842 22.093 20.9889C22.2232 20.9871 22.3475 20.9346 22.4396 20.8425C22.5316 20.7505 22.5842 20.6261 22.586 20.4959V12.2559C22.5858 12.1278 22.5348 12.005 22.4442 11.9146C22.3535 11.8241 22.2306 11.7733 22.1025 11.7734C21.9744 11.7736 21.8516 11.8246 21.7611 11.9153C21.6706 12.0059 21.6198 12.1288 21.62 12.2569ZM19.72 13.9839V13.0459C19.72 13.0709 19.745 12.9719 19.745 12.9719V12.9469C19.745 12.9219 19.77 12.8979 19.77 12.8729V12.8479C19.7733 12.8481 19.7766 12.8475 19.7797 12.8463C19.7828 12.8451 19.7856 12.8433 19.788 12.8409C19.7903 12.8386 19.7922 12.8358 19.7934 12.8327C19.7946 12.8296 19.7951 12.8263 19.795 12.8229L19.82 12.7979H19.845C19.8682 12.7858 19.8931 12.7773 19.919 12.7729C19.9448 12.7685 19.9698 12.7601 19.993 12.7479H20.093C20.118 12.7479 20.142 12.7729 20.167 12.7729C20.1936 12.7861 20.2185 12.8026 20.241 12.8219C20.2541 12.8354 20.2713 12.8442 20.29 12.8469L20.339 12.9209L20.364 12.9459V12.9709C20.364 12.9709 20.389 13.0709 20.389 13.0449V15.7839C20.3874 15.8686 20.3531 15.9493 20.2933 16.0092C20.2334 16.0691 20.1526 16.1034 20.068 16.1049H18.289L18.215 15.6609H19.251C19.3697 15.662 19.4844 15.6181 19.572 15.5379C19.6241 15.491 19.6662 15.434 19.6959 15.3705C19.7256 15.3069 19.7423 15.238 19.745 15.1679C19.72 14.7979 19.72 14.4029 19.72 13.9839ZM10.814 16.1339H10.567C10.5226 16.1345 10.4786 16.1258 10.4378 16.1083C10.397 16.0909 10.3603 16.0651 10.33 16.0326C10.2998 16.0001 10.2767 15.9616 10.2622 15.9197C10.2477 15.8777 10.2422 15.8332 10.246 15.7889V13.0959C10.2416 13.0512 10.2467 13.0061 10.2609 12.9635C10.275 12.9209 10.2979 12.8817 10.3281 12.8485C10.3582 12.8152 10.395 12.7886 10.4361 12.7705C10.4772 12.7523 10.5216 12.7429 10.5665 12.7429C10.6114 12.7429 10.6558 12.7523 10.6968 12.7705C10.7379 12.7886 10.7747 12.8152 10.8049 12.8485C10.8351 12.8817 10.858 12.9209 10.8721 12.9635C10.8862 13.0061 10.8913 13.0512 10.887 13.0959V15.1959C10.8843 15.2669 10.8985 15.3375 10.9286 15.4019C10.9587 15.4663 11.0038 15.5225 11.06 15.5659C11.1476 15.6461 11.2623 15.69 11.381 15.6889H12.491C12.4695 15.8394 12.436 15.9878 12.391 16.1329L10.814 16.1339ZM16.143 20.0069C15.97 19.8589 15.822 19.7359 15.65 19.5879C15.5569 19.499 15.4332 19.4494 15.3045 19.4494C15.1758 19.4494 15.052 19.499 14.959 19.5879C14.811 19.7359 14.638 19.8589 14.49 20.0069H12.615C12.936 18.4069 13.256 16.8239 13.577 15.2209C13.602 15.0729 13.626 14.9499 13.651 14.8019H17.031C17.331 16.4799 17.623 18.1569 17.944 19.8349C17.944 19.8839 17.969 19.9349 17.969 19.9829C17.351 20.0039 16.759 20.0039 16.143 20.0039V20.0069Z" fill="white"/>
<path d="M10.5669 11.418C10.806 11.418 11.0398 11.3471 11.2386 11.2142C11.4374 11.0814 11.5924 10.8926 11.6839 10.6717C11.7754 10.4507 11.7993 10.2077 11.7527 9.97314C11.706 9.73861 11.5909 9.52319 11.4218 9.35411C11.2527 9.18503 11.0373 9.06988 10.8028 9.02323C10.5683 8.97658 10.3252 9.00052 10.1042 9.09203C9.88333 9.18354 9.69451 9.3385 9.56166 9.53732C9.42882 9.73614 9.35791 9.96988 9.35791 10.209C9.35844 10.5295 9.48599 10.8367 9.7126 11.0633C9.93922 11.2899 10.2464 11.4175 10.5669 11.418ZM10.5669 9.987C10.6108 9.987 10.6537 10 10.6902 10.0244C10.7268 10.0488 10.7552 10.0835 10.772 10.124C10.7888 10.1646 10.7932 10.2092 10.7846 10.2523C10.7761 10.2954 10.7549 10.3349 10.7239 10.366C10.6928 10.397 10.6533 10.4182 10.6102 10.4267C10.5672 10.4353 10.5225 10.4309 10.482 10.4141C10.4414 10.3973 10.4067 10.3688 10.3823 10.3323C10.3579 10.2958 10.3449 10.2529 10.3449 10.209C10.3448 10.1798 10.3504 10.1509 10.3615 10.1239C10.3726 10.0969 10.389 10.0724 10.4096 10.0517C10.4303 10.0311 10.4548 10.0147 10.4818 10.0036C10.5088 9.99252 10.5377 9.98687 10.5669 9.987Z" fill="white"/>
<path d="M20.065 11.418C20.3041 11.418 20.5378 11.3471 20.7366 11.2142C20.9355 11.0814 21.0904 10.8926 21.1819 10.6717C21.2734 10.4507 21.2974 10.2077 21.2507 9.97314C21.2041 9.73861 21.0889 9.52319 20.9198 9.35411C20.7508 9.18503 20.5353 9.06988 20.3008 9.02323C20.0663 8.97658 19.8232 9.00052 19.6023 9.09203C19.3814 9.18354 19.1926 9.3385 19.0597 9.53732C18.9269 9.73614 18.856 9.96988 18.856 10.209C18.8565 10.5295 18.984 10.8367 19.2106 11.0633C19.4373 11.2899 19.7445 11.4175 20.065 11.418ZM20.065 9.987C20.1089 9.987 20.1518 10 20.1883 10.0244C20.2248 10.0488 20.2533 10.0835 20.2701 10.124C20.2869 10.1646 20.2913 10.2092 20.2827 10.2523C20.2741 10.2954 20.253 10.3349 20.2219 10.366C20.1909 10.397 20.1513 10.4182 20.1083 10.4267C20.0652 10.4353 20.0206 10.4309 19.98 10.4141C19.9394 10.3973 19.9048 10.3688 19.8804 10.3323C19.856 10.2958 19.843 10.2529 19.843 10.209C19.8428 10.1798 19.8485 10.1509 19.8596 10.1239C19.8707 10.0969 19.887 10.0724 19.9077 10.0517C19.9283 10.0311 19.9528 10.0147 19.9798 10.0036C20.0068 9.99252 20.0358 9.98687 20.065 9.987Z" fill="white"/>
</g>
<defs>
<clipPath id="clip0_168_585">
<rect width="30" height="30" fill="white"/>
</clipPath>
</defs>
</svg>
